<?xml version="1.0" encoding="UTF-8"?>
<svg id="Layer_1" data-name="Layer 1" xmlns="http://www.w3.org/2000/svg" viewBox="0 0 192 192">
  <defs>
    <style>
      .cls-1 {
        fill: #051533;
      }

      .cls-2 {
        fill: #779bc3;
      }
    </style>
  </defs>
  <rect class="cls-1" width="192" height="192"/>
  <g>
    <polygon class="cls-2" points="58.45026 63.3595 73.47016 63.3595 73.47016 47.03926 73.47016 30.71901 58.45026 30.71901 43.43036 30.71901 43.43036 47.03926 58.45026 47.03926 58.45026 63.3595"/>
    <polygon class="cls-2" points="133.54974 47.03926 148.56964 47.03926 148.56964 30.71901 133.54974 30.71901 118.52984 30.71901 118.52984 47.03926 118.52984 63.3595 133.54974 63.3595 133.54974 47.03926"/>
    <rect class="cls-2" x="58.45026" y="128.6405" width="15.0199" height="16.32025"/>
    <polygon class="cls-2" points="88.49005 144.96074 73.47016 144.96074 73.47016 161.28099 88.49005 161.28099 103.50995 161.28099 118.52984 161.28099 118.52984 144.96074 103.50995 144.96074 88.49005 144.96074"/>
    <rect class="cls-2" x="118.52984" y="128.6405" width="15.0199" height="16.32025"/>
    <polygon class="cls-2" points="58.45026 96 43.43036 96 28.41047 96 28.41047 112.32025 43.43036 112.32025 43.43036 128.6405 58.45026 128.6405 58.45026 112.32025 58.45026 96"/>
    <polygon class="cls-2" points="133.54974 96 133.54974 112.32025 133.54974 128.6405 148.56964 128.6405 148.56964 112.32025 163.58953 112.32025 163.58953 96 148.56964 96 133.54974 96"/>
  </g>
</svg>